  http://www.imdb.com/title/tt1678051/


Plot:Wealthy thrill-seekers pay huge premiums to have themselves inserted into military adventures, only this time things don't go exactly to plan.



Director: 
Maxim Korostyshevsky

Writers: 
Robert Crombie, Alexandre Coscas, and 1 more credit ∩┐╜ 

Stars:
Jon Barton, Sean Bean and Elena Beuca 

Genres:
Action | Adventure 


Thanks : NYDIC



Format : AVI
Format/Info : Audio Video Interleave
File size : 691 MiB
Duration : 1h 33mn
Overall bit rate : 1 031 Kbps
Writing application : Lavf54.3.100

Video
ID : 0
Format : MPEG-4 Visual
Format profile : Simple@L3
Format settings, BVOP : No
Format settings, QPel : No
Format settings, GMC : No warppoints
Format settings, Matrix : Default (H.263)
Codec ID : XVID
Codec ID/Hint : XviD
Duration : 1h 33mn
Bit rate : 956 Kbps
Width : 640 pixels
Height : 272 pixels
Display aspect ratio : 2.35:1
Frame rate : 23.976 fps
Color space : YUV
Chroma subsampling : 4:2:0
Bit depth : 8 bits
Scan type : Progressive
Compression mode : Lossy
Bits/(Pixel*Frame) : 0.229
Stream size : 641 MiB (93%)
Writing library : XviD 64

Audio
ID : 1
Format : AC-3
Format/Info : Audio Coding 3
Mode extension : CM (complete main)
Format settings, Endianness : Big
Codec ID : 2000
Duration : 1h 33mn
Bit rate mode : Constant
Bit rate : 64.0 Kbps
Channel(s) : 2 channels
Channel positions : Front: L R
Sampling rate : 48.0 KHz
Bit depth : 16 bits
Compression mode : Lossy
Stream size : 42.9 MiB (6%)
Alignment : Aligned on interleaves
Interleave, duration : 32 ms (0.77 video frame)
Title : final
 
http://image.bayimg.com/aaakhaaea.jpg
 
http://image.bayimg.com/aaakiaaea.jpg
 
http://image.bayimg.com/aaakkaaea.jpg
 
http://image.bayimg.com/aaaklaaea.jpg
